<?xml version="1.0" encoding="UTF-8"?>
<svg version="1.1" viewBox="0 0 1024 1024" width="1280" height="1280" xmlns="http://www.w3.org/2000/svg">
<path transform="translate(0)" d="m0 0h1024v1024h-1024z"/>
<path transform="translate(219,304)" d="m0 0 10 3 19 7 54 17 88 26 37 12 34 12 26 10 23 10 26 12 26 14 17 11 9 10 15 26 13 23 10 16 7 10v2l-25 6-17 6 21-2 23-1h42l32 2 27 4 19 5 12 5 10 6 6 8v3l10 3 7 4v2h2l3 6v11l-4 9-4 6-3 4h-2l-5-9-9-6-15-4-9-1h-15l-25 2-22 3-22 5 22-2h29l15 2v1l-40 5-20 4-21 7-13 7 36-8 20-3 10-1h10l-1 2-23 8-20 9-11 7-6 10-1 9 3 10 5 5 5 3 6-1 9-6 3-1h11l9 6 6 8 1 6-1 3-4-1-8-5h-7l-4 5-4 13v8l12 6-1 4-4 2h-13l-10-4-3-5-1-14-20-4-24-8-16-8-15-9-13-11-10-9-11-12-10-13-10-15-12-20-14-27-9-17v-2l-17-3-12-5-8-6-6-9-3-6v-3l2-1 67-7-105-2-16-4-15-8-10-9-7-11-1-6h50l35 1h26l-108-13-35-4-13-4-9-6-8-11-5-14-1-9 13 1 105 15-47-11-67-16-50-12-10-6-9-8-7-11-5-12-4-18-3-19z" fill="#EAEAEA"/>
<path transform="translate(487,300)" d="m0 0 5 2 12 7 12 6 21 12 25 14 23 13 50 28 10 7 6 5 10 13 9 17 11 23 11 22 10 21 8 16 3 7h-10l-37-2-4-4-17-29-14-26-14-24-7-8-10-6-15-8-14-8-34-17-17-8-18-11-7-8-4-8-4-16-1-10v-12z" fill="#E4B85A"/>
<path transform="translate(632,534)" d="m0 0h45l32 2 27 4 19 5 12 5 10 6 6 8v3l10 3 7 4v2h2l3 6v11l-4 9-4 6-3 4h-2l-5-9-9-6-15-4-9-1h-15l-25 2-22 3-22 5 22-2h29l15 2v1l-40 5-20 4-16 5-2-1-1-5-5-3-8-9-5-5-6-8v-2h-2l-7-9-7-10-7-6h-7l1-4 3-4-5-10 1-1-9-2v-1l18-2z" fill="#C4C4C5"/>
<path transform="translate(219,304)" d="m0 0 10 3 19 7 54 17 44 13 16 5-3 1 2 6 13 2v1l-14 1v4h2l4 8 4 6v2l4 2 4 6 5 4 8 12 1 4 5 1 2 5v2l-9-1-53-13-55-13-25-6-10-6-9-8-7-11-5-12-4-18-3-19z" fill="#C4C4C5"/>
<path transform="translate(480,571)" d="m0 0h5l8 16 14 24 8 12 7 9 5 6v1l-6 1h-29l-17-2-15-6-11-8-7-5-31 3h-40l-18-3-10-4-7-6-2-6 9-4 27-9 35-9 30-6 25-3z" fill="#E4B85A"/>
<path transform="translate(485,391)" d="m0 0 9 3 25 11 23 11 23 13 14 9 9 10 15 26 13 23 10 16 7 10v2l-25 6-17 6h-2l1-3-2-2 2-2-4-6v-2l-4-2-5-8v-2l-4-2-8-10-4-8-5-5-7-8-8-13-7-8-7-9-13-16-5-8-5-7v-2l-4-2-8-10-1-3-3-1 2-3-6-1z" fill="#C4C4C5"/>
<path transform="translate(303,406)" d="m0 0 13 1 70 10 20 3-1 3 4 4 6 8 7 9 1 3h2l2 5 6 1 1 4 4 2 23 3 3 2-15-1-101-12-14-2-12-5-7-6-7-11-4-12z" fill="#C4C4C5"/>
<path transform="translate(697,536)" d="m0 0h12l27 4 19 5 12 5 10 6 6 8v3l10 3 7 4v2h2l3 6v11l-4 9-4 6-3 4h-2l-5-9-9-6-15-4-9-1h-15l-25 2-15 2h-7v-1l18-3 32-3v-1l5-1v-4l-4-2-5-6-7-8-6-8-7-11-4-5-4-3-4-2-9-1z" fill="#9B9B9B"/>
<path transform="translate(219,304)" d="m0 0 10 3 19 7-3 3 5 1 1 5 3 5 5 5 6 8 10 14 5 9 18 18 1 5 3 3v2l14 3v1l-9-1-50-12-10-6-9-8-7-11-5-12-4-18-3-19z" fill="#9B9B9B"/>
<path transform="translate(371,466)" d="m0 0h50l35 1h43l8 1v1l-64 1 3 5 7 9 8 10 2 7h9l-3 3h-49l-16-4-15-8-10-9-7-11z" fill="#C1C1C2"/>
<path transform="translate(703,634)" d="m0 0h4l8 15 8 9 7-1 11-5h9l6 5 3 6v10l-1 2h-4l-3-4v-2h-6l-5 5-4 9v9l6 1 7-1-1 7-4 5-8 3-8-2-5-5-3-5v-18l-7-8-14-9-5-2h-7l-11 6-4-1-2-4 1-7 5-5 9-6z" fill="#DFB65F"/>
<path transform="translate(515,571)" d="m0 0h3l5 5 2 3 5 3 3 6 3 4v2l4 2 4 7 4 4v3l5-3 2 1v6l6 11 1 3 4 2 6 7 8 14 2 3v3l4 2 3 3v2l2 1 1 2 2 2 1 3h3l1 4-5-2-14-11-13-12-10-11-10-13-10-15-12-20-10-19z" fill="#C3C3C4"/>
<path transform="translate(303,406)" d="m0 0 13 1 56 8v1l-14-1-36-5h-4l1 2 5 2-1 2 4 5 2 7 6 3 3 5 7 8 1 5 11 1v1h-9l-14-2-12-5-7-6-7-11-4-12z" fill="#9B9B9B"/>
<path transform="translate(467,512)" d="m0 0h9v3l4 6 5 5 7 9 1 4 3 1v2l-3 2-8-1-12-5-8-6-6-9-3-6v-3l2-1z" fill="#C3C3C3"/>
<path transform="translate(667,636)" d="m0 0h1l1 13-1 16h22l17-1 2 4-22 2-9 5-5 3-6-1-7-5-4-8-1-9 3-9 6-8z" fill="#1A1A1A"/>
<path transform="translate(665,307)" d="m0 0h3v50h49l-1 3h-48v48l-3 1v-49h-49v-3h49z" fill="#1A1A1A"/>
<path transform="translate(357,620)" d="m0 0h3v45h49v3h-49v48l-3 1v-49h-49l-1-3h50z" fill="#1A1A1A"/>
<path transform="translate(708,614)" d="m0 0h10l-1 2-23 8-20 9-8 5-2-1-2-3 2-2-2-7-6-1 3-2 31-6z" fill="#BDBDBE"/>
<path transform="translate(514,373)" d="m0 0 7 3 2 3v15h-22l-5-5v-10l5-4h2v6l-1 1v5l4 1-2-4 1-6 5-4z" fill="#1A1A1A"/>
<path transform="translate(379,502)" d="m0 0h6l4 1 5-1v23l-4 4-2 1h-7l-5-3-1-4h6l5 1 2-4-9 1-4-4v-10l1-3z" fill="#1A1A1A"/>
<path transform="translate(870,502)" d="m0 0 8 1 4-1 1 1v22l-1 3-5 2h-7l-5-4v-3h6l4 1h2l-1-4-7 1-5-5v-7l2-5z" fill="#1A1A1A"/>
<path transform="translate(509,768)" d="m0 0h8l3 1 3 5v12l-2 2h-23v-6l6-1v-9z" fill="#1A1A1A"/>
<path transform="translate(504,236)" d="m0 0h25v5l-1 1h-6l1 3v7l-5 4h-8l-5-4-1-6 1-4-1-1z" fill="#1A1A1A"/>
<path transform="translate(334,496)" d="m0 0 5 1v23l-5 1-2-1-2 1h-7l-3-3-1-3v-7l5-6 7 1 2 1v-7z" fill="#1A1A1A"/>
<path transform="translate(726,496)" d="m0 0h6v8l2-1h8l3 3 1 2v7l-3 5-2 1h-15z" fill="#1A1A1A"/>
<path transform="translate(823,496)" d="m0 0h5v25h-5l-2-1-7 1-3-1-2-3v-11l4-2v-2h7l1 1z" fill="#1A1A1A"/>
<path transform="translate(237,496)" d="m0 0h5v8l5-2 5 1 4 3v11l-2 3-8 1h-8l-1-1-1-22z" fill="#1A1A1A"/>
<path transform="translate(498,686)" d="m0 0h24v5 3 7l-2 3-3 1h-9l-4-3v-9l1-2h-7z" fill="#1A1A1A"/>
<path transform="translate(278,502)" d="m0 0h6 4l5 1v18h-15l-4-4-1-9 2-4z" fill="#1A1A1A"/>
<path transform="translate(509,273)" d="m0 0h9l5 5v15h-15l-4-2 1-6-1-6 1-3z" fill="#1A1A1A"/>
<path transform="translate(504,731)" d="m0 0h17l1 1v8l1 4-3 6-6 2-7-2-3-3-1-4 1-5z" fill="#1A1A1A"/>
<path transform="translate(187,502)" d="m0 0 9 1 1-1h5v18l-5 1h-4l-8-1-3-6v-7z" fill="#1A1A1A"/>
<path transform="translate(513,181)" d="m0 0 7 1v2h2l1 2v15h-19l1-7v-8l3-4z" fill="#1A1A1A"/>
<path transform="translate(520,822)" d="m0 0 2 1v7l1 6-3 5-8 2-7-3-1-2v-15z" fill="#1A1A1A"/>
<path transform="translate(768,502)" d="m0 0h6 3 5v19h-14l-5-5v-9z" fill="#1A1A1A"/>
<path transform="translate(422,459)" d="m0 0 36 4 33 4v1h-35l-35-1-1-3 4-4z" fill="#040404"/>
<path transform="translate(221,502)" d="m0 0 9 1 3 4v10l-3 3-2 1h-7l-4-2-2-3v-8l4-5z" fill="#181818"/>
<path transform="translate(635,497)" d="m0 0h7l5 2 1 5h-6l-3-2v3l9 5v8l-4 3h-8l-5-5 1-3 5 1 3 2h2l-1-3-9-4-2-6 3-5z" fill="#1A1A1A"/>
<path transform="translate(146,497)" d="m0 0h7l3 1v2h2v4h-6v-2h-4l1 3 8 4 3 6-3 5-3 1h-7l-5-3v-4l5-1 1 3h5l-1-3-10-5-1-1v-6l3-1v-2z" fill="#1A1A1A"/>
<path transform="translate(514,865)" d="m0 0 6 2 3 5v5l-3 5-4 1-1-5 1-2h2v-4h-4l-1 5-3 5-2 1h-6l-3-3-1-2v-6l2-4 5-2 1 4-2 6h4l1-6z" fill="#1A1A1A"/>
<path transform="translate(508,141)" d="m0 0h4l-1 7h-2v4h4l3-9 2-2h7l3 4v9l-4 4-3-1v-5l3-5h-4l-2 8h-2l-1 3-6 1-5-6 1-7z" fill="#1A1A1A"/>
<path transform="translate(510,791)" d="m0 0 4 1 1 9-1 3 3-2-1-10h4l3 7-1 6-5 5h-7l-4-2-2-3v-10l3-3z" fill="#171717"/>
<path transform="translate(512,214)" d="m0 0 7 1 4 4v9l-5 5h-5v-13h-3v5l1 1v6h-4l-3-5v-6l3-5z" fill="#171717"/>
<path transform="translate(298,502)" d="m0 0h5v2l3-2h6l4 4v14l-5 1-1-1-1-11-5-1-1 12-5 1-1-1v-17z" fill="#1A1A1A"/>
<path transform="translate(842,502)" d="m0 0 8 1 1-1h6l4 5v14h-5l-1-1v-12h-6l-1 13h-5l-1-1z" fill="#1A1A1A"/>
<path transform="translate(788,502)" d="m0 0 5 1h10l2 3v15h-5l-2-13h-6v13h-5l-1-1v-17z" fill="#1A1A1A"/>
<path transform="translate(354,502)" d="m0 0 6 1 7-1 4 4 1 14-1 1h-5l-2-13h-4l-1 2-1 11h-5l-1-1v-17z" fill="#1A1A1A"/>
<path transform="translate(508,653)" d="m0 0h14v5l-1 1-13 1v4h2v2h12l1 4-1 2h-18v-5-3-8h2v-2z" fill="#1A1A1A"/>
<path transform="translate(511,708)" d="m0 0h11l1 4-1 2-12 1-1 6h12l1 1v5l-2 1h-14l-2-1v-6-2-7l3-3z" fill="#1A1A1A"/>
<path transform="translate(510,161)" d="m0 0h8l5 5 1 6-4 6-4 1v-6l2-5h-7l-1 3 2 3v5l-5-1-3-5 1-8z" fill="#1A1A1A"/>
<path transform="translate(515,844)" d="m0 0 5 2 3 6-1 6-5 5h-7l-5-3-1-2v-9l4-4h3v6l-2 5h7v-4l-1-2z" fill="#1A1A1A"/>
<path transform="translate(166,503)" d="m0 0h10l4 4-1 3-8-2-3-1v6l1 2 4-1 5-1 2 1-2 5-4 2h-6l-5-3-2-5 1-6z" fill="#1A1A1A"/>
<path transform="translate(506,296)" d="m0 0h15l2 1v5 3l1 7-5 3-3 1-9-5 4-2h7v-5h-2v-2h-11l-1-5z" fill="#1A1A1A"/>
<path transform="translate(663,639)" d="m0 0h2v26h-8l-2-6 1-9 6-10z" fill="#010101"/>
<path transform="translate(672,511)" d="m0 0h18l1 1v8l-5 1-2-1-7 1-3-1-2-3z" fill="#1A1A1A"/>
<path transform="translate(657,502)" d="m0 0 4 1 1 3-5 2 1 8h5v-2h6l-2 5-3 2h-7l-5-3-1-2v-8l2-4z" fill="#191919"/>
<path transform="translate(521,639)" d="m0 0 3 1-3 7-4 3h-9v-2h-3l-1-2v-6z" fill="#1A1A1A"/>
<path transform="translate(687,657)" d="m0 0h7l10 5 2 3-18 1-12-1 5-5z" fill="#020202"/>
<path transform="translate(504,259)" d="m0 0h19v12l-2 1-4-1-1-4-1-1-11-1z" fill="#1A1A1A"/>
<path transform="translate(207,496)" d="m0 0 5 1v24h-5l-1-1v-23z" fill="#1A1A1A"/>
<path transform="translate(504,753)" d="m0 0h6l1 6h11l1 5-1 1h-18v-6h2v-2h-2z" fill="#1A1A1A"/>
<path transform="translate(498,813)" d="m0 0h24l1 4-2 2h-22l-1-1z" fill="#1A1A1A"/>
<path transform="translate(505,205)" d="m0 0h23l2 4-1 2h-24l-1-5z" fill="#1A1A1A"/>
<path transform="translate(750,502)" d="m0 0 8 1h3v5l-5 2-1 10-5 1-1-1v-17z" fill="#1A1A1A"/>
<path transform="translate(261,502)" d="m0 0 11 1v5l-6 1-1 11-5 1v-18z" fill="#1A1A1A"/>
<path transform="translate(668,668)" d="m0 0h22l-3 2-9 5-5 3-5-1z" fill="#010101"/>
<path transform="translate(753,561)" d="m0 0 12 3 12 4-3 2-8 2-7-1-6-8z" fill="#050505"/>
<path transform="translate(666,614)" d="m0 0 2 1 1 6-26 6-3-1 15-8z" fill="#090909"/>
<path transform="translate(357,307)" d="m0 0 3 1v39l-4 1z" fill="#1A1A1A"/>
<path transform="translate(708,502)" d="m0 0h9l6 5v5l-4 1h-6l-5-9z" fill="#151515"/>
<path transform="translate(832,502)" d="m0 0h5l1 1v18h-6z" fill="#1A1A1A"/>
<path transform="translate(344,502)" d="m0 0 5 1v17l-1 1h-5v-18z" fill="#1A1A1A"/>
<path transform="translate(504,676)" d="m0 0h18v6h-18z" fill="#1A1A1A"/>
<path transform="translate(708,677)" d="m0 0 4 4 2 8-1 3-4-1-8-5-7-1v-1h10l-1-3 4-2z" fill="#DCDCDC"/>
<path transform="translate(581,657)" d="m0 0 4 1 4 4v2l2 1 1 2 2 2 1 3h3l1 4-5-2-14-11-1-4z" fill="#BFBFC0"/>
<path transform="translate(522,630)" d="m0 0 6 1v2h2l1 2v9l-2 4-5 1 1-8 1-3-5-7z" fill="#1A1A1A"/>
<path transform="translate(704,513)" d="m0 0h9l-2 2 2 1 6-2h3l-1 4-1 2-3 1h-7l-5-4z" fill="#1A1A1A"/>
<path transform="translate(494,544)" d="m0 0h7l3 1 7 14v2h5l1 4h-2l2 4-3 2-12-23v-2l-8-1z" fill="#B2B2B2"/>
<path transform="translate(549,409)" d="m0 0 6 4 5 6 8 7v2l4 2v2l4 2-1 2-7-4v-3l-3-1-6-7-3-2v-2l-3-1-4-5z" fill="#1A1A1A"/>
<path transform="translate(411,549)" d="m0 0 4 2 5 4 7 8 5 5 6 5v2l-5-2-7-8-10-9z" fill="#1A1A1A"/>
<path transform="translate(327,507)" d="m0 0 5 1 1 1v5l-2 2-5-1-1-1v-5z"/>
<path transform="translate(191,507)" d="m0 0 4 1 1 1v5l-3 2-4-1-1-1v-5z"/>
<path transform="translate(735,507)" d="m0 0 4 1 1 6-3 2-4-1-1-1v-6z"/>
<path transform="translate(771,507)" d="m0 0 5 1 1 4-1 3-5 1-3-3 2-5z"/>
<path transform="translate(244,507)" d="m0 0 5 1 2 4-3 4-5-1-1-4z"/>
<path transform="translate(510,829)" d="m0 0h6l2 3-2 5-6-1-2-5z"/>
<path transform="translate(512,691)" d="m0 0 5 2 1 4-2 2-5 1-3-5z"/>
<path transform="translate(816,507)" d="m0 0 5 1 2 4-3 4h-4l-2-3 1-4z"/>
<path transform="translate(383,507)" d="m0 0 5 2 1 3-1 3-6 1-2-5 1-3z"/>
<path transform="translate(511,774)" d="m0 0h5l1 1v5l-2 2-5-1-1-5z"/>
<path transform="translate(282,507)" d="m0 0 5 2-1 7h-5l-1-1v-7z"/>
<path transform="translate(511,279)" d="m0 0h5l2 2-1 5-5 1-2-2v-5z"/>
<path transform="translate(512,242)" d="m0 0 5 1 1 5-2 2h-5l-1-7z"/>
<path transform="translate(511,188)" d="m0 0h6l2 4-2 3h-6l-2-3z"/>
<path transform="translate(696,512)" d="m0 0h7l-2 2v7h-5l-1-1v-7z" fill="#1A1A1A"/>
<path transform="translate(513,380)" d="m0 0 4 1 1 5-2 2-5-1-2-4 1-2z"/>
<path transform="translate(871,508)" d="m0 0h5l2 3-1 4-5 1-2-2v-5z"/>
<path transform="translate(503,366)" d="m0 0h7l7 4-4 2-9-1z" fill="#1A1A1A"/>
<path transform="translate(510,738)" d="m0 0h6l1 1v5l-6 2-2-3z"/>
<path transform="translate(687,669)" d="m0 0h11l9 6 1 2-3 1-6-2 2-2-3-1-3-2-8-1z" fill="#B3B3B3"/>
<path transform="translate(400,417)" d="m0 0 8 1 17 4v1l-12-1-12-2z" fill="#0B0B0B"/>
<path transform="translate(390,357)" d="m0 0h19l-1 3-9 1-9-3z" fill="#1A1A1A"/>
<path transform="translate(708,677)" d="m0 0 3 3-2 1-1 2-1 1h-3l-1-3 4-2zm-14 7h10l1 3-11-2z" fill="#bbb"/>
<path transform="translate(594,455)" d="m0 0h3v2h2l6 7 2 1-1 3-7-6-5-6z" fill="#1A1A1A"/>
<path transform="translate(677,511)" d="m0 0h8v3l-1 2h-5z"/>
<path transform="translate(349,348)" d="m0 0 4 1 3-1 2 4h-2l-1 2v-2l-4-1-1 2-4-4z" fill="#E8E8E8"/>
<path transform="translate(515,571)" d="m0 0h3l3 3v9l-3-4-3-6z" fill="#BCBCBD"/>
<path transform="translate(512,561)" d="m0 0h4l1 4h-2l2 4-3 2-2-4z" fill="#CBCBCB"/>
<path transform="translate(222,512)" d="m0 0 10 1v2l-9 2-2-1z"/>
<path transform="translate(345,494)" d="m0 0 4 1-1 5-6-1 1-4z" fill="#1A1A1A"/>
<path transform="translate(665,701)" d="m0 0 2 3 1 13h-3l-1-4z" fill="#1A1A1A"/>
<path transform="translate(834,494)" d="m0 0 4 1-1 5h-5v-5z" fill="#1A1A1A"/>
<path transform="translate(662,667)" d="m0 0 3 1v7l-5-3-1-4z" fill="#020202"/>
<path transform="translate(509,640)" d="m0 0h9l-2 4-7-1z"/>
<path transform="translate(722,601)" d="m0 0h10l4 2-14 1z" fill="#A7A7A8"/>
<path transform="translate(496,676)" d="m0 0h5v5l-5 1z" fill="#1A1A1A"/>
<path transform="translate(711,681)" d="m0 0 2 2 1 6-1 3-4-1-1-2 3-3-1-3z" fill="#C0C0C0"/>
<path transform="translate(678,599)" d="m0 0 4 1-2 2-14 1 4-2z" fill="#0E0E0E"/>
</svg>
